<svg xmlns="http://www.w3.org/2000/svg" viewBox="0 0 245 522" role="img" aria-labelledby="title desc"><title id="title">TUX logo</title><desc id="desc">TUX burger tuxedo brand mark.</desc><path d="M 104.12 12.75 L 91.62 17.75 L 72.00 25.75 L 58.25 38.62 L 47.38 50.75 L 39.62 70.50 L 34.75 93.62 L 39.50 111.25 L 47.38 123.00 L 197.62 123.00 L 205.50 111.25 L 210.25 93.62 L 205.38 70.50 L 197.62 50.75 L 186.75 38.62 L 173.00 25.75 L 153.38 17.75 L 140.88 12.75 Z M 102.75 21.62 L 141.75 20.12 L 166.25 29.50 L 182.25 43.38 L 193.75 60.88 L 199.25 84.75 L 195.12 105.50 L 189.75 113.12 L 54.62 113.12 L 49.25 105.50 L 45.12 84.75 L 50.62 60.88 L 62.12 43.38 L 78.12 29.50 Z M 102.25 27.62 L 98.75 30.00 L 100.50 35.38 L 105.25 35.25 L 106.25 30.25 Z M 75.50 43.75 L 72.00 47.00 L 74.50 51.62 L 79.12 51.00 L 79.88 46.38 Z M 124.62 42.25 L 121.50 44.88 L 122.75 49.62 L 127.12 49.75 L 128.25 45.38 Z M 158.50 44.62 L 155.25 47.00 L 157.00 51.75 L 161.62 51.50 L 162.62 47.25 Z M 92.62 60.50 L 88.75 63.12 L 90.50 67.75 L 94.75 67.50 L 96.25 63.25 Z M 61.75 75.38 L 58.12 78.25 L 59.88 82.75 L 64.25 82.50 L 65.62 78.25 Z M 170.12 76.00 L 166.25 78.62 L 168.12 83.00 L 172.38 82.88 L 173.75 78.62 Z M 24.38 132.38 L 17.50 140.25 L 6.88 143.38 L 0.00 153.88 L 11.62 151.88 L 22.00 143.62 L 37.38 143.38 L 52.88 154.75 L 68.38 155.00 L 84.12 143.38 L 99.50 143.38 L 115.25 154.88 L 130.88 155.00 L 146.62 143.38 L 162.00 143.38 L 177.62 154.88 L 193.25 155.00 L 208.88 143.38 L 224.25 143.38 L 237.25 151.50 L 245.00 151.38 L 238.38 141.25 L 227.50 143.38 L 212.12 132.38 L 196.62 132.38 L 181.12 143.75 L 165.50 143.75 L 149.88 132.38 L 134.38 132.38 L 118.75 143.75 L 103.12 143.75 L 87.50 132.38 L 71.88 132.38 L 56.25 143.75 L 40.62 143.75 Z M 9.75 165.38 L 0.00 176.38 L 0.00 199.00 L 9.75 210.00 L 235.25 210.00 L 245.00 199.00 L 245.00 176.38 L 235.25 165.38 Z M 16.75 176.25 L 228.25 176.25 L 233.12 181.88 L 233.12 193.50 L 228.25 199.12 L 16.75 199.12 L 11.88 193.50 L 11.88 181.88 Z M 17.12 222.88 L 7.75 234.12 L 7.75 255.88 L 17.12 267.12 L 227.88 267.12 L 237.25 255.88 L 237.25 234.12 L 227.88 222.88 Z M 24.12 233.75 L 220.88 233.75 L 225.75 239.25 L 225.75 250.75 L 220.88 256.25 L 24.12 256.25 L 19.25 250.75 L 19.25 239.25 Z M 28.88 271.00 L 0.00 307.62 L 37.25 316.62 L 16.50 344.75 L 103.12 459.62 L 55.12 284.38 Z M 216.12 271.00 L 245.00 307.62 L 207.75 316.62 L 228.50 344.75 L 141.88 459.62 L 189.88 284.38 Z M 55.12 279.88 L 88.25 303.25 L 78.38 331.38 L 97.38 320.38 L 119.38 335.12 L 103.12 287.88 Z M 189.88 279.88 L 156.75 303.25 L 166.62 331.38 L 147.62 320.38 L 125.62 335.12 L 141.88 287.88 Z M 114.00 329.12 L 106.12 334.62 L 114.00 341.00 L 122.38 336.00 L 130.75 341.00 L 138.88 334.62 L 130.88 329.12 L 122.38 334.00 Z M 52.75 279.62 L 100.88 444.88 L 112.12 466.12 L 122.38 479.88 L 132.88 466.12 L 144.12 444.88 L 192.25 279.62 L 182.00 287.00 L 139.12 439.00 L 122.38 464.25 L 105.88 439.00 L 63.00 287.00 Z M 32.25 472.62 L 24.50 481.12 L 24.50 493.75 L 50.50 493.75 L 50.50 522.00 L 70.62 522.00 L 70.62 493.75 L 94.88 493.75 L 94.88 472.62 Z M 104.75 472.62 L 104.75 507.25 L 109.12 517.75 L 121.00 522.00 L 133.12 517.75 L 137.25 507.25 L 137.25 472.62 L 117.12 472.62 L 117.12 505.38 L 121.12 509.50 L 125.12 505.38 L 125.12 472.62 Z M 149.38 472.62 L 162.00 494.00 L 149.38 522.00 L 170.62 522.00 L 181.00 504.50 L 191.38 522.00 L 212.62 522.00 L 200.00 494.00 L 212.62 472.62 L 191.38 472.62 L 181.00 489.62 L 170.62 472.62 Z" fill="#fff" fill-rule="evenodd"/></svg>