<svg xmlns="http://www.w3.org/2000/svg" viewBox="0 0 239 516" role="img" aria-labelledby="title desc">
<title id="title">TUX logo</title>
<desc id="desc">Original TUX burger and tuxedo logo, faithfully enhanced from the existing artwork.</desc>
<path d="M 180.00 62.34 L 59.00 62.40 L 54.00 58.88 L 51.51 54.00 L 51.31 52.00 L 52.90 49.00 L 53.27 44.00 L 58.00 35.09 L 69.04 24.00 L 76.00 20.46 L 79.07 18.00 L 92.00 13.33 L 96.00 13.09 L 100.00 11.38 L 108.00 11.03 L 112.00 9.37 L 124.00 9.30 L 129.19 11.00 L 140.00 11.36 L 143.00 12.92 L 147.00 13.49 L 149.00 14.83 L 159.00 17.70 L 169.00 23.62 L 175.87 30.00 L 183.10 38.00 L 185.22 44.00 L 185.62 50.00 L 186.69 53.00 L 185.00 59.42 L 180.00 62.34 Z M 181.22 58.00 L 183.39 55.00 L 183.56 53.00 L 181.45 44.00 L 177.00 35.65 L 171.69 30.00 L 159.00 21.70 L 155.00 20.62 L 153.00 19.26 L 149.00 18.58 L 146.00 17.01 L 142.00 16.88 L 139.00 15.27 L 130.00 14.94 L 126.00 13.26 L 113.00 13.06 L 109.00 14.84 L 99.00 15.13 L 95.00 16.87 L 92.00 17.18 L 89.00 18.76 L 86.00 19.05 L 74.00 25.11 L 64.01 33.00 L 62.42 36.00 L 59.55 39.00 L 57.00 44.00 L 55.30 51.00 L 55.37 53.00 L 57.06 57.00 L 58.00 58.23 L 60.00 58.66 L 178.00 58.72 L 181.22 58.00 Z M 137.00 24.05 L 136.49 23.00 L 137.00 22.18 L 137.48 23.00 L 137.00 24.05 Z M 86.00 29.35 L 85.00 29.88 L 83.76 28.00 L 85.00 27.47 L 85.89 28.00 L 86.00 29.35 Z M 156.00 30.45 L 154.61 30.00 L 154.27 29.00 L 155.00 27.80 L 156.78 29.00 L 156.00 30.45 Z M 106.00 37.60 L 104.85 37.00 L 104.95 36.00 L 106.00 35.35 L 107.29 36.00 L 106.00 37.60 Z M 75.00 46.32 L 74.00 46.26 L 73.18 45.00 L 74.00 43.69 L 75.67 45.00 L 75.00 46.32 Z M 186.00 76.13 L 177.00 76.06 L 172.00 73.50 L 168.91 71.00 L 166.00 70.35 L 161.00 70.53 L 151.00 75.90 L 148.00 76.25 L 141.00 75.89 L 130.00 70.38 L 125.00 70.67 L 115.00 76.03 L 113.00 76.25 L 105.45 76.00 L 94.00 70.34 L 88.00 70.49 L 84.00 73.72 L 78.00 76.24 L 68.00 75.96 L 59.00 70.52 L 53.00 70.38 L 48.00 72.47 L 46.37 72.00 L 46.17 71.00 L 48.00 69.00 L 52.00 66.95 L 58.00 66.64 L 64.00 68.96 L 69.00 72.40 L 78.00 72.51 L 88.00 66.85 L 94.00 66.65 L 96.00 67.07 L 106.00 72.51 L 114.00 72.56 L 116.00 71.82 L 119.00 69.11 L 124.00 66.75 L 131.00 66.65 L 137.00 68.88 L 141.00 72.28 L 149.00 72.60 L 151.00 72.29 L 161.00 66.83 L 167.00 66.65 L 172.66 69.00 L 178.00 72.49 L 186.00 72.48 L 190.00 70.62 L 192.00 70.81 L 193.00 71.88 L 192.16 74.00 L 186.00 76.13 Z M 189.00 98.02 L 49.63 98.00 L 47.17 97.00 L 43.44 93.00 L 43.19 87.00 L 43.72 85.00 L 46.00 82.63 L 48.00 80.91 L 50.00 80.52 L 189.00 80.53 L 191.00 81.24 L 194.08 84.00 L 195.15 86.00 L 195.26 89.00 L 194.50 94.00 L 191.00 97.30 L 189.00 98.02 Z M 189.71 94.00 L 191.34 92.00 L 191.29 86.00 L 190.00 84.49 L 188.00 84.19 L 52.00 84.18 L 49.00 85.17 L 47.34 87.00 L 46.93 89.00 L 47.56 93.00 L 49.00 94.05 L 51.00 94.32 L 189.71 94.00 Z M 173.00 129.26 L 67.00 129.63 L 58.00 125.44 L 56.00 123.60 L 53.38 119.00 L 52.69 115.00 L 51.26 112.00 L 54.00 106.00 L 59.00 102.35 L 180.00 102.43 L 185.00 105.26 L 187.26 110.00 L 187.27 114.00 L 184.14 122.00 L 181.00 125.10 L 173.00 129.26 Z M 173.70 125.00 L 177.00 123.52 L 180.65 120.00 L 183.11 115.00 L 183.21 111.00 L 181.15 107.00 L 180.00 106.18 L 61.00 105.94 L 57.55 107.00 L 55.37 112.00 L 55.64 115.00 L 57.80 120.00 L 61.00 123.18 L 67.00 125.93 L 170.00 125.97 L 173.70 125.00 Z M 115.00 389.36 L 109.90 380.00 L 106.78 376.00 L 100.03 362.00 L 96.83 358.00 L 90.18 344.00 L 83.48 333.00 L 74.38 315.00 L 71.40 311.00 L 64.39 297.00 L 61.34 293.00 L 52.57 275.00 L 47.46 267.00 L 40.54 253.00 L 35.99 246.00 L 29.00 231.80 L 25.92 228.00 L 22.18 220.00 L 23.09 218.00 L 35.74 205.00 L 38.00 201.43 L 42.26 197.00 L 42.79 196.00 L 42.31 194.00 L 40.00 193.08 L 35.00 192.89 L 32.00 191.22 L 27.00 190.90 L 24.00 189.20 L 19.00 188.84 L 16.00 187.20 L 11.00 186.76 L 10.00 185.89 L 10.12 184.00 L 16.47 177.00 L 18.04 174.00 L 26.40 165.00 L 27.99 162.00 L 34.60 155.00 L 36.00 152.00 L 44.70 143.00 L 46.04 140.00 L 52.00 133.95 L 54.00 132.76 L 56.66 139.00 L 56.89 143.00 L 58.61 147.00 L 59.03 152.00 L 60.62 155.00 L 60.96 160.00 L 62.65 163.00 L 62.99 168.00 L 64.66 171.00 L 64.98 177.00 L 66.43 180.00 L 66.88 185.00 L 68.35 188.00 L 68.82 193.00 L 70.35 196.00 L 70.84 201.00 L 72.43 204.00 L 73.00 209.93 L 74.39 212.00 L 74.71 217.00 L 76.37 220.00 L 76.69 225.00 L 78.35 228.00 L 78.85 235.00 L 80.42 238.00 L 80.88 243.00 L 82.45 246.00 L 82.68 250.00 L 84.42 254.00 L 84.80 259.00 L 86.37 262.00 L 86.71 267.00 L 88.34 270.00 L 88.68 275.00 L 90.37 278.00 L 90.62 284.00 L 92.15 287.00 L 92.62 292.00 L 94.17 295.00 L 94.58 300.00 L 96.17 303.00 L 96.52 308.00 L 98.13 311.00 L 98.49 316.00 L 100.15 319.00 L 100.47 324.00 L 102.13 327.00 L 102.46 332.00 L 104.11 335.00 L 104.42 341.00 L 106.15 345.00 L 106.60 350.00 L 108.12 353.00 L 108.52 358.00 L 110.14 361.00 L 110.55 366.00 L 112.14 369.00 L 112.53 374.00 L 114.00 376.56 L 114.46 382.00 L 116.00 384.74 L 115.84 388.00 L 115.00 389.36 Z M 124.00 390.04 L 123.00 390.99 L 122.68 388.00 L 124.28 385.00 L 124.52 380.00 L 126.00 377.00 L 126.31 371.00 L 128.00 367.89 L 128.37 363.00 L 130.00 360.00 L 130.38 355.00 L 132.00 351.96 L 132.35 347.00 L 133.98 344.00 L 134.30 339.00 L 135.91 336.00 L 136.26 331.00 L 137.90 328.00 L 138.30 323.00 L 139.82 320.00 L 140.32 315.00 L 141.81 312.00 L 142.38 305.00 L 144.00 302.01 L 144.14 298.00 L 145.72 295.00 L 146.35 289.00 L 147.93 286.00 L 148.12 282.00 L 149.86 278.00 L 150.30 273.00 L 151.76 270.00 L 152.32 265.00 L 153.76 262.00 L 154.05 258.00 L 155.78 254.00 L 156.09 248.00 L 157.72 245.00 L 158.12 240.00 L 159.69 237.00 L 160.10 232.00 L 161.63 229.00 L 162.08 224.00 L 163.60 221.00 L 164.04 216.00 L 165.73 212.00 L 166.00 206.77 L 167.51 204.00 L 168.02 200.00 L 169.47 197.00 L 169.86 191.00 L 171.46 188.00 L 171.83 183.00 L 173.44 180.00 L 173.85 175.00 L 175.38 172.00 L 175.86 167.00 L 177.55 163.00 L 177.86 157.00 L 179.49 154.00 L 179.85 149.00 L 181.50 146.00 L 181.83 141.00 L 183.46 138.00 L 183.99 133.00 L 186.00 132.19 L 189.50 137.00 L 196.44 144.00 L 199.53 149.00 L 206.42 156.00 L 209.57 161.00 L 216.42 168.00 L 219.00 172.32 L 226.44 180.00 L 228.53 184.00 L 228.62 186.00 L 227.00 186.92 L 223.00 187.25 L 220.00 188.79 L 215.00 189.26 L 212.00 190.82 L 207.00 191.28 L 204.00 192.78 L 199.00 193.25 L 196.45 195.00 L 195.97 196.00 L 197.13 198.00 L 216.08 217.00 L 216.65 220.00 L 206.45 240.00 L 199.74 251.00 L 195.04 261.00 L 187.70 273.00 L 183.14 283.00 L 177.87 291.00 L 169.05 309.00 L 166.03 313.00 L 159.03 327.00 L 152.37 338.00 L 145.59 352.00 L 142.50 356.00 L 135.62 370.00 L 132.53 374.00 L 124.00 390.04 Z M 121.00 372.51 L 119.00 372.43 L 116.67 370.00 L 116.29 363.00 L 114.61 360.00 L 114.30 355.00 L 112.65 352.00 L 112.65 347.00 L 110.68 344.00 L 110.68 339.00 L 108.63 336.00 L 108.59 330.00 L 106.60 326.00 L 106.39 321.00 L 104.63 318.00 L 104.43 313.00 L 102.67 310.00 L 102.56 305.00 L 100.67 302.00 L 100.67 296.00 L 98.83 293.00 L 98.56 288.00 L 96.65 284.00 L 96.60 280.00 L 94.87 277.00 L 94.70 272.00 L 92.74 268.00 L 92.84 264.00 L 90.92 261.00 L 90.80 255.00 L 88.87 251.00 L 88.49 246.00 L 86.84 243.00 L 86.64 238.00 L 84.88 235.00 L 84.73 230.00 L 82.91 227.00 L 82.76 222.00 L 81.00 219.37 L 80.68 214.00 L 78.89 211.00 L 78.75 205.00 L 77.11 202.00 L 76.79 197.00 L 75.13 194.00 L 74.88 189.00 L 73.16 186.00 L 72.90 181.00 L 71.13 178.00 L 70.95 173.00 L 69.14 170.00 L 69.31 165.00 L 67.13 160.00 L 67.20 156.00 L 65.13 152.00 L 65.25 148.00 L 63.09 144.00 L 63.00 138.84 L 64.00 138.27 L 68.00 140.27 L 80.00 149.44 L 82.00 149.04 L 82.62 148.00 L 82.94 142.00 L 84.00 140.73 L 88.00 142.41 L 93.00 146.90 L 96.00 148.40 L 100.00 152.04 L 104.00 154.41 L 107.00 157.19 L 110.00 158.42 L 113.00 161.10 L 115.00 161.26 L 118.00 159.66 L 121.00 159.58 L 126.00 161.33 L 128.00 160.49 L 133.00 156.03 L 136.00 154.46 L 141.00 150.07 L 143.45 149.00 L 149.00 144.04 L 151.00 143.28 L 155.00 140.12 L 156.04 140.00 L 157.42 141.00 L 157.91 148.00 L 159.00 148.95 L 165.00 145.17 L 170.00 140.66 L 176.23 137.00 L 177.00 137.33 L 177.00 139.00 L 175.84 141.00 L 175.08 147.00 L 173.37 150.00 L 173.33 156.00 L 171.37 159.00 L 171.33 164.00 L 169.51 167.00 L 169.36 172.00 L 167.50 175.00 L 167.39 180.00 L 165.50 184.00 L 165.36 190.00 L 163.66 192.00 L 163.26 198.00 L 161.26 201.00 L 161.52 205.00 L 159.48 209.00 L 159.57 213.00 L 157.60 217.00 L 157.40 222.00 L 155.72 225.00 L 155.61 231.00 L 153.55 234.00 L 153.54 239.00 L 151.45 242.00 L 151.55 247.00 L 149.61 250.00 L 149.62 255.00 L 147.71 259.00 L 147.66 263.00 L 145.66 267.00 L 145.61 271.00 L 143.48 275.00 L 143.74 280.00 L 141.41 284.00 L 141.74 288.00 L 139.79 292.00 L 139.79 296.00 L 137.98 300.00 L 137.62 305.00 L 135.69 309.00 L 135.83 314.00 L 133.74 317.00 L 133.78 322.00 L 131.55 326.00 L 131.77 330.00 L 129.90 333.00 L 129.83 338.00 L 128.17 341.00 L 127.87 346.00 L 125.79 350.00 L 125.79 354.00 L 123.63 358.00 L 123.96 363.00 L 122.42 366.00 L 121.98 371.00 L 121.00 372.51 Z M 120.12 363.00 L 122.59 359.00 L 122.75 354.00 L 124.54 350.00 L 124.43 345.00 L 126.21 342.00 L 126.39 337.00 L 128.45 334.00 L 128.44 329.00 L 130.48 326.00 L 130.44 321.00 L 132.39 318.00 L 132.40 313.00 L 134.37 309.00 L 134.41 305.00 L 136.24 301.00 L 136.41 295.00 L 138.39 292.00 L 138.52 287.00 L 140.59 284.00 L 140.26 280.00 L 142.38 276.00 L 142.50 271.00 L 144.03 268.00 L 144.41 263.00 L 146.19 259.00 L 146.16 254.00 L 148.05 251.00 L 148.20 246.00 L 150.42 242.00 L 150.18 238.00 L 152.15 234.00 L 152.23 228.00 L 153.99 225.00 L 154.21 220.00 L 156.07 217.00 L 156.18 212.00 L 157.97 209.00 L 158.27 204.00 L 160.10 201.00 L 160.01 197.00 L 161.86 193.00 L 161.99 187.00 L 163.79 184.00 L 164.19 180.00 L 165.84 177.00 L 165.99 171.00 L 167.82 168.00 L 167.95 163.00 L 169.72 160.00 L 169.94 155.00 L 171.66 152.00 L 172.47 145.00 L 171.00 143.86 L 158.11 153.00 L 157.66 181.00 L 157.00 182.51 L 156.00 182.93 L 145.00 177.62 L 141.00 176.71 L 131.00 171.43 L 129.00 171.51 L 120.00 176.93 L 115.00 174.64 L 112.00 171.84 L 109.00 171.18 L 107.00 171.64 L 86.00 182.48 L 84.00 182.80 L 82.85 181.00 L 82.80 156.00 L 82.27 154.00 L 79.00 150.36 L 75.67 149.00 L 72.00 145.85 L 68.00 144.29 L 66.60 146.00 L 66.47 148.00 L 68.45 151.00 L 68.41 156.00 L 70.48 159.00 L 70.43 165.00 L 72.57 169.00 L 72.55 173.00 L 74.21 176.00 L 74.52 181.00 L 76.50 185.00 L 76.41 189.00 L 78.48 193.00 L 78.53 198.00 L 80.49 201.00 L 80.35 206.00 L 82.39 210.00 L 82.59 215.00 L 84.33 218.00 L 84.54 223.00 L 86.30 226.00 L 86.46 231.00 L 88.27 234.00 L 88.48 239.00 L 90.32 242.00 L 90.38 248.00 L 92.03 251.00 L 92.35 255.00 L 94.27 258.00 L 94.33 264.00 L 96.05 267.00 L 96.51 273.00 L 98.26 276.00 L 98.49 281.00 L 100.30 284.00 L 100.42 290.00 L 102.09 293.00 L 102.33 298.00 L 104.06 301.00 L 104.23 306.00 L 106.03 309.00 L 106.27 314.00 L 108.03 317.00 L 108.17 322.00 L 110.05 325.00 L 110.17 331.00 L 112.00 334.74 L 112.13 339.00 L 114.04 343.00 L 114.02 347.00 L 116.02 351.00 L 116.10 355.00 L 117.79 358.00 L 118.43 363.00 L 119.00 363.76 L 120.12 363.00 Z M 80.00 505.02 L 69.00 505.32 L 67.00 503.72 L 66.74 442.00 L 65.00 439.68 L 61.00 439.47 L 58.00 438.17 L 57.28 437.00 L 57.13 427.00 L 58.00 425.06 L 59.00 424.69 L 90.00 424.63 L 92.33 426.00 L 92.30 437.00 L 90.00 439.53 L 84.00 440.30 L 82.63 442.00 L 82.55 501.00 L 82.12 503.00 L 80.00 505.02 Z M 121.00 505.15 L 107.37 505.00 L 100.00 499.87 L 96.74 494.00 L 96.41 488.00 L 94.65 483.00 L 94.68 476.00 L 95.42 473.00 L 94.65 469.00 L 94.50 428.00 L 94.74 426.00 L 96.00 424.80 L 108.00 424.63 L 110.05 426.00 L 110.35 485.00 L 111.62 488.00 L 115.00 490.96 L 117.98 489.00 L 118.36 487.00 L 118.56 426.00 L 120.00 424.72 L 125.00 424.60 L 132.00 424.68 L 133.72 426.00 L 133.79 492.00 L 131.38 497.00 L 128.92 500.00 L 125.35 503.00 L 121.00 505.15 Z M 180.00 505.22 L 168.00 505.36 L 166.04 504.00 L 165.49 501.00 L 163.96 498.00 L 163.73 490.00 L 161.95 486.00 L 161.00 477.26 L 160.00 477.93 L 159.37 481.00 L 157.80 484.00 L 157.60 492.00 L 155.98 495.00 L 155.63 502.00 L 155.00 503.40 L 153.00 505.07 L 151.00 505.38 L 142.00 505.32 L 140.05 504.00 L 140.34 495.00 L 141.85 492.00 L 142.39 485.00 L 143.94 482.00 L 144.25 477.00 L 145.91 473.00 L 146.12 466.00 L 147.92 462.00 L 147.76 460.00 L 146.25 457.00 L 145.86 450.00 L 144.11 446.00 L 143.89 439.00 L 142.29 435.00 L 142.07 429.00 L 141.09 426.00 L 142.00 424.82 L 153.00 424.61 L 155.00 425.11 L 157.60 430.00 L 157.84 440.00 L 159.34 443.00 L 160.00 446.35 L 161.00 447.06 L 161.96 438.00 L 163.61 434.00 L 163.87 427.00 L 164.79 425.00 L 177.00 424.62 L 179.24 426.00 L 179.28 429.00 L 177.59 433.00 L 177.28 441.00 L 175.69 444.00 L 175.34 451.00 L 173.67 455.00 L 173.50 465.00 L 173.70 468.00 L 175.47 472.00 L 175.67 478.00 L 177.25 481.00 L 177.61 488.00 L 179.24 491.00 L 179.68 499.00 L 181.24 503.00 L 181.00 504.36 L 180.00 505.22 Z" fill="#ffffff" fill-rule="evenodd"/>
</svg>